#!OML:ASF H:\Male1\Project 1\Capture day 1\Session 1\Male1.ASF
:FULLY-SPECIFIED
:DEGREES
525
root 10.6499 15.6303 -0.652061 317.774 -76.8711 -320.772
lowerback 17.7409 -3.01344 4.83564
upperback 12.4224 -4.26811 3.18196
thorax 3.42289 -2.36275 1.25185
lowerneck -0.760906 -0.704765 3.40478
upperneck 23.5148 -1.74198 -1.54974
head 7.27671 -0.923759 -1.22848
rclavicle 3.18055e-015 1.27222e-014
rhumerus -51.9704 23.6146 -105.555
rradius 46.6065
rwrist -24.4774
rhand -35.3889 21.609
rfingers 7.12502
rthumb -8.52007 -8.1991
lclavicle 3.18055e-015 1.27222e-014
lhumerus -30.9217 -12.8705 97.2137
lradius 25.3609
lwrist 3.69611
lhand -20.6525 -6.12375
lfingers 7.12502
lthumb 5.70988 23.7793
rfemur -14.8767 -14.4961 15.0847
rtibia 28.8868
rfoot -38.6335 -36.1137
rtoes 24.6427
lfemur -46.0563 -2.68207 -30.9816
ltibia 98.1545
lfoot -5.41105 5.96243
ltoes -11.0535
526
root 10.7025 15.5889 -0.631716 319.421 -76.9011 -323.018
lowerback 17.8651 -3.05401 4.71766
upperback 12.5212 -4.34688 3.21265
thorax 3.47879 -2.41651 1.36562
lowerneck -0.0466382 -0.671432 3.28372
upperneck 22.1554 -1.55737 -1.69472
head 6.7094 -0.852105 -1.21852
rclavicle -3.97569e-014 -1.27222e-014
rhumerus -52.8607 24.363 -105.887
rradius 47.5254
rwrist -25.5264
rhand -34.5581 20.4778
rfingers 7.12502
rthumb -7.71827 -9.36137
lclavicle -3.97569e-014 -1.27222e-014
lhumerus -31.3381 -13.078 97.2559
lradius 25.8054
lwrist 4.03498
lhand -21.2078 -7.2532
lfingers 7.12502
lthumb 5.17374 22.6636
rfemur -14.9759 -15.0076 15.2844
rtibia 29.8285
rfoot -38.3299 -36.0463
rtoes 24.367
lfemur -45.0978 -2.75709 -30.7251
ltibia 97.9756
lfoot -6.04657 5.98617
ltoes -11.774
527
root 10.7582 15.5467 -0.609683 321.095 -76.9697 -325.295
lowerback 17.9774 -3.07238 4.66284
upperback 12.6527 -4.39308 3.2078
thorax 3.57131 -2.44869 1.39998
lowerneck 0.589588 -0.65642 3.21619
upperneck 20.7773 -1.41874 -1.80813
head 6.15837 -0.791203 -1.21285
rclavicle 2.06736e-014 -4.77083e-015
rhumerus -53.5928 24.9653 -106.215
rradius 48.2145
rwrist -26.4526
rhand -33.952 19.7664
rfingers 7.12502
rthumb -7.13324 -10.0933
lclavicle 2.06736e-014 -4.77083e-015
lhumerus -31.7823 -13.5422 97.3657
lradius 26.3804
lwrist 4.50681
lhand -22.0278 -8.39238
lfingers 7.12502
lthumb 4.38189 21.5423
rfemur -15.0715 -15.4126 15.5229
rtibia 30.7145
rfoot -38.0201 -36.0905
rtoes 24.102
lfemur -44.1991 -2.82962 -30.4278
ltibia 97.8423
lfoot -6.6154 5.92427
ltoes -12.1348
528
root 10.8165 15.5037 -0.585809 322.666 -77.1009 -327.48
lowerback 18.0747 -3.04768 4.68111
upperback 12.8306 -4.37963 3.14726
thorax 3.71505 -2.4439 1.32316
lowerneck 1.1267 -0.677973 3.2553
upperneck 19.4143 -1.3491 -1.9035
head 5.63536 -0.751563 -1.22551
rclavicle -5.40694e-014 0
rhumerus -54.0906 25.356 -106.522
rradius 48.6598
rwrist -27.2732
rhand -33.5194 19.431
rfingers 7.12502
rthumb -6.71562 -10.4425
lclavicle -5.40694e-014 0
lhumerus -32.2542 -14.258 97.5044
lradius 27.1141
lwrist 5.082
lhand -23.1598 -9.49472
lfingers 7.12502
lthumb 3.28876 20.4597
rfemur -15.1648 -15.6985 15.7886
rtibia 31.5666
rfoot -37.7149 -36.1979
rtoes 23.9121
lfemur -43.3401 -2.81177 -30.1074
ltibia 97.7621
lfoot -7.23689 5.7795
ltoes -12.9551
529
root 10.8764 15.4597 -0.559875 324.026 -77.2947 -329.469
lowerback 18.1527 -2.97772 4.74339
upperback 13.0516 -4.30698 3.0237
thorax 3.90983 -2.40329 1.14343
lowerneck 1.5996 -0.738743 3.39884
upperneck 18.0597 -1.34757 -1.97566
head 5.13061 -0.735619 -1.25283
rclavicle 7.95139e-015 -3.02153e-014
rhumerus -54.3405 25.552 -106.822
rradius 48.8615
rwrist -28.0035
rhand -33.2813 19.4997
rfingers 7.12502
rthumb -6.48576 -10.381
lclavicle 7.95139e-015 -3.02153e-014
lhumerus -32.7546 -15.1253 97.629
lradius 28.0151
lwrist 5.7556
lhand -24.5194 -10.4849
lfingers 7.12502
lthumb 1.97568 19.4857
rfemur -15.2582 -15.9116 16.0516
rtibia 32.4064
rfoot -37.4011 -36.2838
rtoes 23.8496
lfemur -42.5227 -2.64709 -29.8048
ltibia 97.735
lfoot -7.92338 5.6509
ltoes -14.0355
530
root 10.937 15.4123 -0.532006 325.168 -77.5653 -331.272
lowerback 18.2292 -2.86845 4.82801
upperback 13.307 -4.18434 2.85053
thorax 4.14065 -2.33358 0.889906
lowerneck 2.05308 -0.826571 3.6017
upperneck 16.703 -1.39322 -2.01289
head 4.63288 -0.738072 -1.28141
rclavicle -1.59028e-015 -1.90833e-014
rhumerus -54.3806 25.6166 -107.147
rradius 48.8786
rwrist -28.6669
rhand -32.9518 19.316
rfingers 7.12502
rthumb -6.16772 -10.5742
lclavicle -1.59028e-015 -1.90833e-014
lhumerus -33.2855 -16.0077 97.7117
lradius 29.0775
lwrist 6.533
lhand -25.9781 -11.2976
lfingers 7.12502
lthumb 0.566884 18.6814
rfemur -15.3348 -16.0864 16.3117
rtibia 33.2457
rfoot -37.0653 -36.2893
rtoes 23.9456
lfemur -41.713 -2.28144 -29.5172
ltibia 97.8082
lfoot -8.77332 5.60395
ltoes -15.1127
531
root 10.9964 15.3622 -0.501978 326.162 -77.9349 -332.962
lowerback 18.3089 -2.73144 4.92933
upperback 13.5822 -4.02651 2.65027
thorax 4.39248 -2.24363 0.592675
lowerneck 2.58076 -0.923364 3.80144
upperneck 14.9789 -1.47171 -1.928
head 4.45232 -0.746863 -1.37562
rclavicle -4.29375e-014 -3.65764e-014
rhumerus -54.2799 25.6329 -107.527
rradius 48.8122
rwrist -29.2537
rhand -33.1787 19.6299
rfingers 7.12502
rthumb -6.38675 -10.2538
lclavicle -4.29375e-014 -3.65764e-014
lhumerus -33.8618 -16.7799 97.7506
lradius 30.2966
lwrist 7.42258
lhand -27.4774 -11.9659
lfingers 7.12502
lthumb -0.881185 18.012
rfemur -15.3866 -16.2391 16.5868
rtibia 34.0936
rfoot -36.6824 -36.2082
rtoes 24.1387
lfemur -40.9473 -1.68586 -29.2141
ltibia 98.0005
lfoot -9.76592 5.71936
ltoes -16.4398
